<svg xmlns="http://www.w3.org/2000/svg" viewBox="0 0 102.69 130.86"><defs><style>.cls-1,.cls-8{fill:none;stroke-linecap:round;stroke-linejoin:round;stroke-width:2.43px;}.cls-1{stroke:#ed1846;}.cls-2{fill:#27aae1;}.cls-3{fill:#66cef6;}.cls-4{fill:#fff;}.cls-5{fill:#034694;}.cls-6{fill:#0061af;}.cls-7{fill:#ed1846;}.cls-8{stroke:#fff;}</style></defs><title>codeРесурс 10</title><g id="Слой_2" data-name="Слой 2"><g id="bg_3" data-name="bg 3"><line class="cls-1" x1="38.82" y1="117.01" x2="38.04" y2="129.64"/><polyline class="cls-1" points="31.91 126.78 38.5 121.99 44.07 127.43"/><line class="cls-1" x1="63.7" y1="117.01" x2="64.48" y2="129.64"/><polyline class="cls-1" points="70.61 126.78 64 121.99 58.44 127.43"/><path class="cls-2" d="M97.27,0c-8,3.74-13.66,11.06-13.66,11.06S73.85,5.67,51.53,5.54h-.38c-22.31.13-32.09,5.52-32.09,5.52S13.43,3.74,5.42,0c-11.48,30.43-1.53,85.48.94,92.41s10.82,26.12,45,26.12,42.5-19.25,45-26.12S108.75,30.43,97.27,0Z"/><path class="cls-3" d="M53.58,42.24A24.34,24.34,0,1,1,29.23,17.89,24.34,24.34,0,0,1,53.58,42.24Z"/><path class="cls-4" d="M43.21,42.24a16.8,16.8,0,1,1-16.8-16.8A16.8,16.8,0,0,1,43.21,42.24Z"/><path class="cls-5" d="M39,42.24A11.41,11.41,0,1,1,27.62,30.83,11.41,11.41,0,0,1,39,42.24Z"/><path class="cls-3" d="M98.3,42.24A24.35,24.35,0,1,1,74,17.89,24.34,24.34,0,0,1,98.3,42.24Z"/><path class="cls-6" d="M51.71,28.14c4.92-9,16-15.47,29-16A96,96,0,0,0,51.14,7.34c-.06,0-.12,1.4-.19,1.4s-.12-1.41-.19-1.4c-15.16.07-24.69,3.42-29.43,4.73C35,12.23,46.61,18.8,51.71,28.14Z"/><polygon class="cls-7" points="56.89 43.63 51.5 57.16 46.11 43.63 56.89 43.63"/><path class="cls-3" d="M51.25,70.36A31.83,31.83,0,0,0,20.67,111c6.71,4.36,16.43,7.67,30.58,7.67s23.87-3.31,30.58-7.67a31.39,31.39,0,0,0,1.24-8.77A31.82,31.82,0,0,0,51.25,70.36Z"/><path class="cls-8" d="M38.51,93.12a5.62,5.62,0,0,1-10.89,0"/><path class="cls-8" d="M56.65,93.12a5.63,5.63,0,0,1-10.9,0"/><path class="cls-8" d="M74.8,93.12a5.62,5.62,0,0,1-10.88,0"/><path class="cls-8" d="M47.82,104.65a5.63,5.63,0,0,1-10.89,0"/><path class="cls-8" d="M65.52,104.65a5.63,5.63,0,0,1-10.9,0"/><path class="cls-4" d="M93.69,42.24a16.81,16.81,0,1,1-16.8-16.8A16.8,16.8,0,0,1,93.69,42.24Z"/><path class="cls-5" d="M89.5,42.24A11.41,11.41,0,1,1,78.1,30.83,11.4,11.4,0,0,1,89.5,42.24Z"/></g></g></svg>