<svg xmlns="http://www.w3.org/2000/svg" viewBox="0 0 710.56 200"><defs><style>.cls-1{fill:#0061af;opacity:0.08;}.cls-2{fill:#fff;}.cls-3,.cls-4{fill:none;stroke-linecap:round;stroke-linejoin:round;stroke-width:3px;}.cls-3{stroke:#ed1846;}.cls-4{stroke:#0061af;}</style></defs><title>codeРесурс 4</title><g id="Слой_2" data-name="Слой 2"><g id="bg_3" data-name="bg 3"><path class="cls-1" d="M688.44,142.5a10,10,0,0,0-5,2.29,18.54,18.54,0,0,0-3.94-3.52A16.44,16.44,0,0,0,664,140.9a16.73,16.73,0,0,0-8.92,12.66A14.35,14.35,0,0,0,634.81,168a11.32,11.32,0,0,0-11.3,7.48,12.34,12.34,0,0,0,3.86,13.17,13.62,13.62,0,0,0,13.76,1.84c4,4.71,12.22,4.9,16.45.39a14.89,14.89,0,0,0,24.41-.41,26,26,0,0,0,16.84.5,17,17,0,0,0,11.1-12.37c1.27-5.59.92-11.6-3.89-16.35a19.65,19.65,0,0,0-6.54-3.74,8.27,8.27,0,0,0,1.91-6.28A11.06,11.06,0,0,0,688.44,142.5Z"/><path class="cls-1" d="M196.54,101.11s5.8-5.87,4.91-16.11c-1.3-14.93-15.58-27.69-33.29-24.85A25.84,25.84,0,0,0,155.23,66s-4.85-5.87-10.12-9c-11.85-7.07-27.42-7.17-39.74-1a42.94,42.94,0,0,0-22.89,32.5A37.57,37.57,0,0,0,45.83,92a37.56,37.56,0,0,0-15.3,33.49c-12.44-1.14-24.94,7.37-29,19.19s.25,25.86,9.9,33.81,23.84,9.63,35.32,4.7c10.31,12.08,31.35,12.58,42.22,1a38.17,38.17,0,0,0,62.62-1.05,66.67,66.67,0,0,0,43.24,1.29c13.32-4,25-16.57,28.48-31.76,3.25-14.33,2.35-29.76-10-41.95C207.12,104.61,196.54,101.11,196.54,101.11Z"/><path class="cls-1" d="M505.07,7.32a21.88,21.88,0,0,1,11,5,39.71,39.71,0,0,1,8.59-7.65c10-6,23.26-6.08,33.72-.82a36.43,36.43,0,0,1,19.42,27.57,31.22,31.22,0,0,1,44.07,31.36C632.4,61.79,643,69,646.45,79s-.22,21.94-8.39,28.69-20.24,8.17-30,4c-8.75,10.25-26.6,10.67-35.82.85a32.39,32.39,0,0,1-53.13-.89,56.53,56.53,0,0,1-36.69,1.09c-11.3-3.42-21.24-14.06-24.16-26.95-2.76-12.15-2-25.25,8.48-35.59C472,45,481,42.08,481,42.08a18,18,0,0,1-4.17-13.68C477.93,15.73,490.05,4.91,505.07,7.32Z"/><rect class="cls-2" x="285.44" y="63" width="148.94" height="102.78" rx="5" ry="5"/><rect class="cls-3" x="285.44" y="63" width="148.94" height="102.78" rx="5" ry="5"/><path class="cls-2" d="M356.18,103a5.78,5.78,0,0,1,7.48,0l67,59.43c2.05,1.82,1.49,3.32-1.26,3.32H290.44c-2.75,0-3.31-1.5-1.25-3.32Z"/><path class="cls-3" d="M356.18,103a5.78,5.78,0,0,1,7.48,0l67,59.43c2.05,1.82,1.49,3.32-1.26,3.32H290.44c-2.75,0-3.31-1.5-1.25-3.32Z"/><path class="cls-2" d="M363.66,125.75a5.78,5.78,0,0,1-7.48,0l-67-59.43c-2.06-1.83-1.5-3.32,1.25-3.32h139c2.75,0,3.31,1.49,1.26,3.32Z"/><path class="cls-3" d="M363.66,125.75a5.78,5.78,0,0,1-7.48,0l-67-59.43c-2.06-1.83-1.5-3.32,1.25-3.32h139c2.75,0,3.31,1.49,1.26,3.32Z"/><path class="cls-4" d="M266.47,121.1s19.91-38.19-19.9-38.19S146,111.16,121.92,87.09c0,0,21,50.24,111,17.79"/><path class="cls-4" d="M239.24,118.49s-69.14,33.49-87.47-6.8"/><path class="cls-4" d="M245.52,132.09s-55.52,27.21-68.09-.52"/><path class="cls-4" d="M453.36,121.1s-19.91-38.19,19.9-38.19,100.56,28.25,124.66,4.18c0,0-21,50.24-111,17.79"/><path class="cls-4" d="M480.59,118.49s69.14,33.49,87.47-6.8"/><path class="cls-4" d="M474.31,132.09s55.51,27.21,68.09-.52"/></g></g></svg>