<svg xmlns="http://www.w3.org/2000/svg" viewBox="0 0 378.44 207.4"><defs><style>.cls-1,.cls-2{fill:#2660ab;}.cls-1{opacity:0.08;}.cls-3{fill:#64a8df;}.cls-4{fill:#cc1d47;}.cls-5{fill:none;stroke:#cc1d47;stroke-linecap:round;stroke-linejoin:round;stroke-width:3px;fill-rule:evenodd;}</style></defs><title>codeРесурс 6</title><g id="Слой_2" data-name="Слой 2"><g id="text"><circle class="cls-1" cx="24.16" cy="173.12" r="24.16"/><circle class="cls-1" cx="110.72" cy="42.27" r="42.27"/><circle class="cls-1" cx="301.95" cy="130.91" r="76.49"/><path class="cls-2" d="M218.63,23.13v10.1H144.11V23.13h74.52m.58-3H143.52a2.42,2.42,0,0,0-2.41,2.42V33.82a2.41,2.41,0,0,0,2.41,2.41h75.69a2.42,2.42,0,0,0,2.42-2.41V22.55a2.43,2.43,0,0,0-2.42-2.42Z"/><path class="cls-3" d="M190.44,43.26v6.08H144.11V43.26h46.33m.59-3H143.52a2.42,2.42,0,0,0-2.41,2.42v7.24a2.42,2.42,0,0,0,2.41,2.42H191a2.42,2.42,0,0,0,2.41-2.42V42.68A2.42,2.42,0,0,0,191,40.26Z"/><path class="cls-2" d="M226.68,59.36v6.08H144.11V59.36h82.57m.58-3H143.52a2.42,2.42,0,0,0-2.41,2.42V66a2.41,2.41,0,0,0,2.41,2.41h83.74A2.42,2.42,0,0,0,229.68,66V58.78a2.43,2.43,0,0,0-2.42-2.42Z"/><path class="cls-2" d="M202.52,76.27v5.28H144.11V76.27h58.41m.59-3H143.52a2.42,2.42,0,0,0-2.41,2.42v6.44a2.42,2.42,0,0,0,2.41,2.42h59.59a2.43,2.43,0,0,0,2.41-2.42V75.69a2.43,2.43,0,0,0-2.41-2.42Z"/><path class="cls-3" d="M210.57,92.38V105.7H144.11V92.38h66.46m.59-3H143.52a2.41,2.41,0,0,0-2.41,2.41v14.5a2.41,2.41,0,0,0,2.41,2.41h67.64a2.41,2.41,0,0,0,2.41-2.41V91.79a2.41,2.41,0,0,0-2.41-2.41Z"/><path class="cls-2" d="M226.68,115.73v10.1H144.11v-10.1h82.57m.58-3H143.52a2.42,2.42,0,0,0-2.41,2.41v11.28a2.41,2.41,0,0,0,2.41,2.41h83.74a2.42,2.42,0,0,0,2.42-2.41V115.14a2.43,2.43,0,0,0-2.42-2.41Z"/><path class="cls-4" d="M149.16,147.94A17.13,17.13,0,1,1,132,165.07a17.15,17.15,0,0,1,17.13-17.13m0-3a20.13,20.13,0,1,0,20.13,20.13,20.13,20.13,0,0,0-20.13-20.13Z"/><path class="cls-4" d="M149.16,160a5.06,5.06,0,1,1-5,5.06,5.06,5.06,0,0,1,5-5.06m0-3a8.06,8.06,0,1,0,8.05,8.06,8.05,8.05,0,0,0-8.05-8.06Z"/><path class="cls-4" d="M229.68,160a5.06,5.06,0,1,1-5.05,5.06,5.06,5.06,0,0,1,5.05-5.06m0-3a8.06,8.06,0,1,0,8,8.06,8.05,8.05,0,0,0-8-8.06Z"/><path class="cls-4" d="M229.68,147.94a17.13,17.13,0,1,1-17.13,17.13,17.15,17.15,0,0,1,17.13-17.13m0-3a20.13,20.13,0,1,0,20.13,20.13,20.13,20.13,0,0,0-20.13-20.13Z"/><polyline class="cls-5" points="68.64 60.39 100.84 60.39 129.03 136.88 241.75 136.88 249.81 104.68"/></g></g></svg>