<svg xmlns="http://www.w3.org/2000/svg" viewBox="0 0 531.8 176.63"><defs><style>.cls-1{fill:#cc1d47;}.cls-2{fill:#2660ab;}</style></defs><title>codeРесурс 1</title><g id="Слой_2" data-name="Слой 2"><g id="bg_3" data-name="bg 3"><path class="cls-1" d="M25.09,86.93H.43V35H38.65v7.87H9.55v12H25.09c11.38,0,17.72,5.76,17.72,16S36.39,86.93,25.09,86.93Zm-.51-24.66h-15V79.49H24.72c6,0,9-2.85,9-8.46S30.27,62.27,24.58,62.27Z"/><path class="cls-1" d="M53.38,35H62.5V74.82L84.82,35H95.39V86.93H86.28V47.1L64,86.93H53.38Z"/><path class="cls-1" d="M132.73,86.93H108.08V35H146.3v7.87H117.2v12h15.53c11.38,0,17.73,5.76,17.73,16S144,86.93,132.73,86.93Zm-.51-24.66h-15V79.49h15.17c6,0,9-2.85,9-8.46S137.91,62.27,132.22,62.27Z"/><path class="cls-1" d="M192.68,86.93V42.87h-16l-.95,24.73c-.59,14.51-6.49,20.28-13.93,20.28a18.31,18.31,0,0,1-5.47-.95v-7a11.87,11.87,0,0,0,3.57.58c3.72,0,6.56-2.19,7-15.39l1-30.12H201.8V86.93Z"/><path class="cls-1" d="M214.19,35h9.12V74.82L245.63,35h10.58V86.93h-9.12V47.1L224.77,86.93H214.19Z"/><path class="cls-1" d="M316,61c0,16.19-10.14,27.21-24.95,27.21s-24.94-11-24.94-27.21c0-15.24,9.19-27.2,25.09-27.2C305.87,33.76,316,44.84,316,61Zm-40.7-.14c0,12.1,6.13,19.69,15.9,19.69,9.48,0,15.61-7.73,15.61-19.62s-6.13-19.47-15.76-19.47S275.31,49.07,275.31,60.82Z"/><path class="cls-1" d="M367.93,86.93h-9.11V63.59H335V86.93h-9.12V35H335V55.64h23.78V35h9.11Z"/><path class="cls-1" d="M427.74,61c0,16.19-10.14,27.21-24.95,27.21s-24.94-11-24.94-27.21c0-15.24,9.19-27.2,25.09-27.2C417.6,33.76,427.74,44.84,427.74,61ZM387,60.82c0,12.1,6.13,19.69,15.9,19.69,9.48,0,15.61-7.73,15.61-19.62s-6.13-19.47-15.76-19.47S387,49.07,387,60.82Z"/><path class="cls-1" d="M454.21,65.63C438.31,65.63,436,55.56,436,49.8V35h9.12V47c0,4.23.15,10.5,10.58,10.5a63.54,63.54,0,0,0,12.18-1.24V35H477V86.93h-9.11V64.17A96,96,0,0,1,454.21,65.63Z"/><path class="cls-1" d="M512.63,86.93h-23V35h9.12V54.84h13.86c11.37,0,17.72,5.76,17.72,16S523.93,86.93,512.63,86.93Zm-.51-24.66H498.77V79.49h13.49c6,0,9-2.85,9-8.46S517.81,62.27,512.12,62.27Z"/><path class="cls-2" d="M14.28,139.82c-8.52,0-13.85-6-13.85-15.62,0-8.57,5-15.67,14.15-15.67,5.88,0,11.8,3.27,12.39,9.66H23c-.88-3.91-4.07-6.26-8.53-6.26-7.09,0-10.07,5.92-10.07,12.22,0,7.61,3.82,12.27,10,12.27,5.08,0,8.19-3,8.82-8.61h3.95C26.55,135.41,21.67,139.82,14.28,139.82Z"/><path class="cls-2" d="M44.73,121.21l13.1,17.9h-5L42,123.9l-5,4.71v10.5H33.06V109.2H37V124L52.17,109.2h5.16Z"/><path class="cls-2" d="M61.91,109.2h4v25.33h.08L80.6,109.2h5v29.91H81.65V113.69h-.08l-14.7,25.42h-5Z"/><path class="cls-2" d="M115.58,146.55v-7.44H94v7.44H90.14V135.66h2.94c2.26-4,3.9-12.43,3.9-20.66v-5.8h19.11v26.46h3.32v10.89Zm-3.44-33.91h-11.3v4.08c0,7.43-1.55,15.21-3.4,18.94h14.7Z"/><path class="cls-2" d="M135.91,121.21l13.1,17.9h-5L133.14,123.9l-4.95,4.71v10.5h-4V109.2h4V124l15.16-14.83h5.16Z"/><path class="cls-2" d="M177.32,139.11h-4.41L169.6,130H157l-3.4,9.16h-4.2L161.2,109.2h4.45Zm-14-26.13-5.17,13.82h10.25Z"/><path class="cls-2" d="M217.35,139.11H213.4v-14H197.61v14h-4V109.2h4v12.48H213.4V109.2h3.95Z"/><path class="cls-2" d="M249.06,139.11h-4.41L241.33,130H228.77l-3.4,9.16h-4.2l11.76-29.91h4.45Zm-14-26.13-5.16,13.82h10.24Z"/><path class="cls-2" d="M278.16,109.2c5,0,9.54,2,9.54,7.48a6.7,6.7,0,0,1-4.41,6.42c3.69.84,5.75,3.62,5.75,7.57,0,6.89-5.63,8.44-11.34,8.44H265.4V109.2ZM269.26,122h7.1c3.36,0,7.39-.25,7.39-4.74s-3.49-4.71-7-4.71h-7.48Zm0,13.78h7.9c4,0,7.89-.25,7.89-5.5s-4.58-5.17-8.57-5.17h-7.22Z"/><path class="cls-2" d="M307.4,139.82c-8.53,0-13.86-6-13.86-15.62,0-8.57,4.95-15.67,14.15-15.67,5.88,0,11.8,3.27,12.39,9.66h-3.95c-.88-3.91-4.07-6.26-8.52-6.26-7.1,0-10.08,5.92-10.08,12.22,0,7.61,3.82,12.27,10,12.27,5.08,0,8.19-3,8.82-8.61h3.95C319.66,135.41,314.79,139.82,307.4,139.82Z"/><path class="cls-2" d="M346.87,112.64H330.12V122h15.66v3.32H330.12v10.33h17v3.45H326.17V109.2h20.7Z"/><path class="cls-2" d="M358.55,115.46l2.77,3.78-1.72,1.26-2.9-4-2.77,4-1.85-1.26,2.73-3.78-4.45-1.6.72-2.06,4.49,1.68v-4.74h2.27v4.74l4.45-1.68.84,2.06Z"/><path class="cls-2" d="M392.48,121.21l13.11,17.9h-5L389.71,123.9l-4.95,4.71v10.5h-3.95V109.2h3.95V124l15.16-14.83h5.16Z"/><path class="cls-2" d="M433.35,139.11h-4v-14H413.61v14h-3.95V109.2h3.95v12.48H429.4V109.2h4Z"/><path class="cls-2" d="M440.83,109.2h3.95v25.33h.08l14.65-25.33h5v29.91h-3.95V113.69h-.08l-14.7,25.42h-4.95Z"/><path class="cls-2" d="M472,139.11V109.2h19.65v3.44h-15.7v26.47Z"/><path class="cls-2" d="M495.8,109.2h3.95v25.33h.09l14.65-25.33h5v29.91h-4V113.69h-.08l-14.7,25.42h-5Z"/><path class="cls-2" d="M531.8,122.1h-4.66v-4.67h4.66Zm0,17h-4.66v-4.66h4.66Z"/><path class="cls-2" d="M11.84,175.79H.43c.22-4,2.17-5.46,5.21-7.36,1.88-1.19,4.18-2.47,4.18-5a3.2,3.2,0,0,0-3.39-3.31c-2.61,0-3.36,2.23-3.41,4.4H.9V164a5.37,5.37,0,0,1,5.63-5.75c3.31,0,5.46,2,5.46,5.09,0,3.4-2.67,5-5.23,6.59-1.61,1-3.44,1.95-3.91,3.93h9Z"/><path class="cls-2" d="M26.74,167.47c0,4.12-.74,8.67-5.76,8.67-5.31,0-5.93-4.55-5.93-8.72s.42-9.14,5.83-9.14S26.74,163.29,26.74,167.47Zm-9.46-.05c0,2.59.07,6.86,3.65,6.86s3.56-4.44,3.56-7,.07-7.17-3.61-7.17S17.28,164.75,17.28,167.42Z"/><path class="cls-2" d="M38.52,163c0,3.36-1.38,5.18-4,5.18s-4-1.7-4-5c0-3.13,1.45-4.91,4.07-4.91S38.52,159.88,38.52,163Zm-6.1.32c0,2.32.71,3.46,2.12,3.46,1.91,0,2.13-2.23,2.13-3.69,0-2.27-.69-3.38-2.13-3.38S32.42,160.87,32.42,163.27Zm3.95,13.36H34.69l9.91-18.9h1.63ZM50.82,171c0,3.36-1.38,5.19-4,5.19s-4-1.7-4-5c0-3.14,1.46-4.91,4.07-4.91S50.82,167.91,50.82,171Zm-6.1.33c0,2.32.72,3.45,2.13,3.45,1.9,0,2.12-2.22,2.12-3.68,0-2.27-.69-3.38-2.12-3.38S44.72,168.9,44.72,171.3Z"/><path class="cls-2" d="M76.71,175.79H74.39v-8.23H65.1v8.23H62.77V158.2H65.1v7.34h9.29V158.2h2.32Z"/><path class="cls-2" d="M95.36,175.79h-2.6l-2-5.38H83.42l-2,5.38H79l6.92-17.59h2.62Zm-8.23-15.36-3,8.12h6Z"/><path class="cls-2" d="M112.25,176.21c-5,0-8.15-3.56-8.15-9.19,0-5,2.91-9.21,8.32-9.21,3.46,0,6.94,1.92,7.29,5.68h-2.32c-.52-2.3-2.4-3.68-5-3.68-4.17,0-5.93,3.48-5.93,7.19,0,4.47,2.25,7.21,5.91,7.21,3,0,4.82-1.78,5.19-5.06h2.32C119.46,173.62,116.6,176.21,112.25,176.21Z"/><path class="cls-2" d="M137.54,175.79H135L133,170.41h-7.39l-2,5.38h-2.47l6.92-17.59h2.62Zm-8.22-15.36-3,8.12h6Z"/><path class="cls-2" d="M139.79,158.2h2.32v14.9h0l8.62-14.9h2.94v17.59H151.4V160.85h-.05l-8.65,14.94h-2.91Zm7-1.21a3.7,3.7,0,0,1-3.75-3.41h1.26a2.55,2.55,0,0,0,4.94,0h1.26A3.64,3.64,0,0,1,146.75,157Z"/><path class="cls-2" d="M170.32,160.23h-5.91v15.56h-2.32V160.23h-5.9v-2h14.13Z"/><path class="cls-2" d="M185,160.23h-9.86v5.51h9.21v1.95h-9.21v6.08h10v2h-12.3V158.2H185Z"/><path class="cls-2" d="M195.73,158.2h2.33v14.9h0l8.63-14.9h2.94v17.59h-2.33V160.85h-.05l-8.64,14.94h-2.92Z"/><path class="cls-2" d="M226.16,158.28c3.09,0,5.14,1.82,5.14,4.57a3.85,3.85,0,0,1-2.39,3.65,4.13,4.13,0,0,1,3.21,4.23c0,3.26-2.47,5.41-6.05,5.41s-5.86-2.1-5.86-5.44v-.32h2.08c.09,2.5,1.48,3.9,3.8,3.9s3.78-1.38,3.78-3.4-1.51-3.36-3.88-3.36a7,7,0,0,0-1.14.09v-1.77c.35,0,.47,0,.72,0,2.18,0,3.53-1.11,3.53-2.89a2.78,2.78,0,0,0-3-2.87c-2.1,0-3.34,1.39-3.41,3.86h-2C220.7,160.33,222.71,158.28,226.16,158.28Z"/><path class="cls-2" d="M246.39,167.47c0,4.12-.74,8.67-5.75,8.67-5.31,0-5.93-4.55-5.93-8.72s.42-9.14,5.83-9.14S246.39,163.29,246.39,167.47Zm-9.46-.05c0,2.59.08,6.86,3.66,6.86s3.56-4.44,3.56-7,.07-7.17-3.61-7.17S236.93,164.75,236.93,167.42Z"/><path class="cls-2" d="M258.18,163c0,3.36-1.39,5.18-4,5.18s-4-1.7-4-5c0-3.13,1.46-4.91,4.08-4.91S258.18,159.88,258.18,163Zm-6.11.32c0,2.32.72,3.46,2.13,3.46,1.9,0,2.12-2.23,2.12-3.69,0-2.27-.69-3.38-2.12-3.38S252.07,160.87,252.07,163.27Zm4,13.36h-1.68l9.9-18.9h1.63ZM270.48,171c0,3.36-1.39,5.19-4,5.19s-4-1.7-4-5c0-3.14,1.46-4.91,4.08-4.91S270.48,167.91,270.48,171Zm-6.1.33c0,2.32.71,3.45,2.12,3.45,1.9,0,2.13-2.22,2.13-3.68,0-2.27-.7-3.38-2.13-3.38S264.38,168.9,264.38,171.3Z"/><path class="cls-2" d="M289.94,158.2c2.92,0,5.61,1.16,5.61,4.4a3.93,3.93,0,0,1-2.6,3.78,4.19,4.19,0,0,1,3.39,4.45c0,4-3.31,5-6.67,5h-7.24V158.2Zm-5.24,7.54h4.18c2,0,4.35-.15,4.35-2.79s-2.05-2.77-4.13-2.77h-4.4Zm0,8.1h4.65c2.34,0,4.64-.15,4.64-3.24s-2.69-3-5-3H284.7Z"/><path class="cls-2" d="M310.44,158.2l5.66,14.9,5.46-14.9h3.23v17.59h-2.2V161.12l-5.5,14.67h-2l-5.61-14.67v14.67h-2.22V158.2Z"/><path class="cls-2" d="M343.47,175.79h-2.6l-1.95-5.38h-7.39l-2,5.38h-2.47L334,158.2h2.62Zm-8.23-15.36-3,8.12h6Z"/><path class="cls-2" d="M345.71,175.79V158.2h11.56v2H348v15.56Z"/><path class="cls-2" d="M374,175.79h-2.59l-1.95-5.38H362l-2,5.38h-2.47l6.92-17.59h2.61Zm-8.22-15.36-3,8.12h6Z"/><path class="cls-2" d="M382.47,176.19c-4.2,0-7.29-2-7.29-6.2h2.25c.1,3.18,2.42,4.29,5.23,4.29,2.42,0,4.33-1.43,4.33-3.68,0-2.57-2.1-3.08-4.45-3.08-.49,0-1.21,0-1.58,0v-1.92c.39.05,1.19.05,1.58.05,2.22,0,3.83-.77,3.83-3.16,0-2.18-1.8-2.82-3.78-2.82-2.59,0-4.1,1-4.37,3.58H376c.15-3.78,3-5.51,6.69-5.51,3.39,0,6,1.44,6,4.75a4.16,4.16,0,0,1-2.91,3.82v.08a4.2,4.2,0,0,1,3.53,4.22C389.31,172.83,387.41,176.19,382.47,176.19Z"/><path class="cls-2" d="M392.72,158.2H395v14.9h0l8.62-14.9h2.94v17.59h-2.32V160.85h-.05l-8.65,14.94h-2.91Z"/><path class="cls-2" d="M425,175.79h-2.33v-8.23h-9.28v8.23H411V158.2h2.33v7.34h9.28V158.2H425Z"/><path class="cls-2" d="M443.63,175.79H441l-1.95-5.38h-7.39l-2,5.38h-2.47l6.92-17.59h2.62Zm-8.23-15.36-3,8.12h6Z"/><path class="cls-2" d="M452.76,166.73l6.18,9.06h-2.82l-4.74-7.24-4.92,7.24H443.8l6.2-9.06-5.81-8.53H447L451.4,165,456,158.2h2.65Z"/><path class="cls-2" d="M476.1,176.21c-5,0-8.15-3.56-8.15-9.19,0-5,2.92-9.21,8.33-9.21,3.46,0,6.94,1.92,7.29,5.68h-2.33c-.52-2.3-2.39-3.68-5-3.68-4.18,0-5.93,3.48-5.93,7.19,0,4.47,2.25,7.21,5.9,7.21,3,0,4.82-1.78,5.19-5.06h2.32C483.32,173.62,480.45,176.21,476.1,176.21Z"/><path class="cls-2" d="M499.32,160.23h-9.86v5.51h9.22v1.95h-9.22v6.08h10v2H487.14V158.2h12.18Z"/><path class="cls-2" d="M514.93,160.23H509v15.56h-2.32V160.23H500.8v-2h14.13Z"/><path class="cls-2" d="M517.4,158.2h2.32v14.9h0l8.62-14.9h2.94v17.59H529V160.85h0l-8.64,14.94H517.4Z"/><path class="cls-1" d="M4.56,3C6.34,3,8,3.7,8,5.76A2.51,2.51,0,0,1,6.4,8.18a2.66,2.66,0,0,1,2,2.84c0,2.59-2,3.18-4,3.18H0V3ZM1.38,7.77H3.92c1.2,0,2.64-.09,2.64-1.78S5.31,4.22,4.05,4.22H1.38Zm0,5.18H4.2C5.63,13,7,12.86,7,10.88S5.39,8.94,4,8.94H1.38Z"/><path class="cls-1" d="M24.42,14.2H23V4.25H17.37v10H16V3h8.46Z"/><path class="cls-1" d="M32,3c2,0,3.56.9,3.56,3.24,0,2.54-1.56,3.4-3.65,3.4H29V14.2H27.6V3ZM29,8.34h2.72c1.37,0,2.42-.4,2.42-2s-1.22-2.06-2.61-2.06H29Z"/><path class="cls-1" d="M45.42,4.25h-6V7.77H45V9h-5.6V12.9H45.5v1.3H38V3h7.4Z"/><path class="cls-1" d="M56,17V14.2H48.26V17H46.89V12.9h1a19.11,19.11,0,0,0,1.4-7.77V3h6.83v10h1.19V17ZM54.76,4.25h-4V5.78A19.44,19.44,0,0,1,49.5,12.9h5.26Z"/><path class="cls-1" d="M67.58,17V14.2H59.84V17H58.48V12.9h1.05a19.11,19.11,0,0,0,1.4-7.77V3h6.83v10h1.18V17ZM66.35,4.25h-4V5.78a19.44,19.44,0,0,1-1.22,7.12h5.26Z"/><path class="cls-1" d="M75.68,3c1.77,0,3.41.75,3.41,2.81a2.52,2.52,0,0,1-1.58,2.42A2.67,2.67,0,0,1,79.57,11c0,2.59-2,3.18-4,3.18h-4.4V3ZM72.5,7.77H75c1.2,0,2.64-.09,2.64-1.78s-1.25-1.77-2.51-1.77H72.5Zm0,5.18h2.82c1.43,0,2.82-.09,2.82-2.07s-1.63-1.94-3.06-1.94H72.5Z"/><path class="cls-1" d="M89.55,4.25h-6V7.77h5.6V9h-5.6V12.9h6.07v1.3H82.15V3h7.4Z"/><path class="cls-1" d="M96.53,3c2,0,3.56.9,3.56,3.24,0,2.54-1.56,3.4-3.65,3.4h-2.9V14.2H92.13V3Zm-3,5.39h2.72c1.37,0,2.42-.4,2.42-2s-1.22-2.06-2.62-2.06H93.54Z"/><path class="cls-1" d="M102.55,3H104v9.53h0L109.23,3H111V14.2H109.6V4.64h0l-5.25,9.56h-1.77Z"/><path class="cls-1" d="M114.14,3h1.41v9.53h0L120.82,3h1.78V14.2h-1.41V4.64h0l-5.25,9.56h-1.77Z"/><path class="cls-1" d="M135.21,3c1.77,0,3.41.75,3.41,2.81A2.52,2.52,0,0,1,137,8.18,2.67,2.67,0,0,1,139.1,11c0,2.59-2,3.18-4.06,3.18h-4.39V3ZM132,7.77h2.53c1.21,0,2.65-.09,2.65-1.78S136,4.22,134.7,4.22H132ZM132,13h2.82c1.43,0,2.82-.09,2.82-2.07S136,8.94,134.61,8.94H132Z"/><path class="cls-1" d="M146.11,14.47c-3.05,0-5-2.28-5-5.88,0-3.22,1.77-5.89,5.06-5.89,2.1,0,4.22,1.23,4.43,3.63h-1.41a2.9,2.9,0,0,0-3-2.35c-2.53,0-3.6,2.23-3.6,4.6,0,2.85,1.37,4.61,3.59,4.61,1.81,0,2.93-1.14,3.15-3.24h1.41C150.49,12.81,148.75,14.47,146.11,14.47Z"/><path class="cls-1" d="M160.67,4.25h-6V7.77h5.6V9h-5.6V12.9h6.06v1.3h-7.47V3h7.4Z"/><path class="cls-1" d="M167.65,3c2,0,3.56.9,3.56,3.24,0,2.54-1.57,3.4-3.65,3.4h-2.9V14.2h-1.41V3Zm-3,5.39h2.72c1.36,0,2.41-.4,2.41-2s-1.21-2.06-2.61-2.06h-2.52Z"/><path class="cls-1" d="M183.3,8.48c0,3.3-1.72,6-5.12,6s-5.12-2.75-5.12-6c0-3.51,2-5.77,5.11-5.77C181.49,2.68,183.3,5.13,183.3,8.48Zm-8.82.08c0,2.81,1.45,4.63,3.72,4.63s3.69-1.84,3.69-4.63S180.44,4,178.17,4C175.65,4,174.48,6.16,174.48,8.56Z"/><path class="cls-1" d="M190.25,14.47c-3.05,0-4.95-2.28-4.95-5.88,0-3.22,1.77-5.89,5.06-5.89,2.1,0,4.22,1.23,4.43,3.63h-1.42a2.89,2.89,0,0,0-3-2.35c-2.54,0-3.61,2.23-3.61,4.6,0,2.85,1.37,4.61,3.59,4.61,1.82,0,2.93-1.14,3.15-3.24h1.42C194.64,12.81,192.89,14.47,190.25,14.47Z"/><path class="cls-1" d="M201.84,14.47c-3.05,0-5-2.28-5-5.88,0-3.22,1.78-5.89,5.06-5.89,2.11,0,4.22,1.23,4.43,3.63H205A2.9,2.9,0,0,0,201.91,4c-2.53,0-3.6,2.23-3.6,4.6,0,2.85,1.37,4.61,3.59,4.61,1.82,0,2.93-1.14,3.15-3.24h1.41C206.22,12.81,204.48,14.47,201.84,14.47Z"/><path class="cls-1" d="M209,3h1.41v9.53h0L215.68,3h1.78V14.2h-1.41V4.64h0l-5.25,9.56H209Z"/><path class="cls-1" d="M220.58,3H222v9.53h0L227.27,3h1.78V14.2h-1.41V4.64h0l-5.25,9.56h-1.78Zm4.24-.77A2.3,2.3,0,0,1,222.54,0h.76a1.51,1.51,0,0,0,1.5,1.23A1.52,1.52,0,0,0,226.3,0h.77A2.26,2.26,0,0,1,224.82,2.18Z"/><path class="cls-1" d="M236.6,14.47c-3,0-4.95-2.28-4.95-5.88,0-3.22,1.77-5.89,5.06-5.89a4.14,4.14,0,0,1,4.42,3.63h-1.41a2.89,2.89,0,0,0-3-2.35c-2.54,0-3.61,2.23-3.61,4.6,0,2.85,1.37,4.61,3.59,4.61,1.82,0,2.93-1.14,3.15-3.24h1.42C241,12.81,239.24,14.47,236.6,14.47Z"/><path class="cls-1" d="M247.93,7.47l4.69,6.73h-1.8l-3.88-5.72-1.77,1.77V14.2h-1.41V3h1.41V8.53L250.59,3h1.85Z"/><path class="cls-1" d="M264.16,8.48c0,3.3-1.73,6-5.12,6s-5.12-2.75-5.12-6c0-3.51,2-5.77,5.11-5.77C262.34,2.68,264.16,5.13,264.16,8.48Zm-8.83.08c0,2.81,1.46,4.63,3.73,4.63s3.69-1.84,3.69-4.63S261.29,4,259,4C256.5,4,255.33,6.16,255.33,8.56Z"/><path class="cls-1" d="M266.68,3h1.41v9.53h0L273.36,3h1.79V14.2h-1.41V4.64h0l-5.26,9.56h-1.77Zm4.23-.77A2.3,2.3,0,0,1,268.63,0h.77a1.51,1.51,0,0,0,1.5,1.23A1.52,1.52,0,0,0,272.4,0h.77A2.27,2.27,0,0,1,270.91,2.18Z"/><path class="cls-1" d="M291.85,14.2h-1.57l-1.19-3.45H284.6l-1.22,3.45h-1.5L286.09,3h1.59Zm-5-9.83L285,9.57h3.66Z"/><path class="cls-1" d="M297.84,7.47l4.69,6.73h-1.81l-3.87-5.72-1.77,1.77V14.2h-1.41V3h1.41V8.53L300.5,3h1.84Z"/><path class="cls-1" d="M312.49,14.2h-8.15V3h1.41v10h5.53V3h1.41v10h1.17V17h-1.37Z"/><path class="cls-1" d="M316,3h1.41v9.53h0L322.7,3h1.78V14.2h-1.41V4.64h0l-5.25,9.56H316Z"/><path class="cls-1" d="M327.6,3H329v9.53h0L334.29,3h1.78V14.2h-1.41V4.64h0l-5.25,9.56H327.6Z"/><path class="cls-1" d="M348.68,3c1.77,0,3.41.75,3.41,2.81a2.52,2.52,0,0,1-1.58,2.42A2.67,2.67,0,0,1,352.57,11c0,2.59-2,3.18-4.06,3.18h-4.39V3ZM345.5,7.77H348c1.2,0,2.65-.09,2.65-1.78s-1.25-1.77-2.51-1.77H345.5Zm0,5.18h2.82c1.43,0,2.82-.09,2.82-2.07s-1.64-1.94-3.06-1.94H345.5Z"/><path class="cls-1" d="M368.54,14.2h-1.41V4.25h-5.65v10h-1.41V3h8.47Z"/><path class="cls-1" d="M381.3,8.48c0,3.3-1.73,6-5.12,6s-5.12-2.75-5.12-6c0-3.51,2-5.77,5.1-5.77C379.48,2.68,381.3,5.13,381.3,8.48Zm-8.83.08c0,2.81,1.45,4.63,3.72,4.63s3.7-1.84,3.7-4.63S378.43,4,376.16,4C373.64,4,372.47,6.16,372.47,8.56Z"/><path class="cls-1" d="M391.86,17V14.2h-7.73V17h-1.37V12.9h1.06a19.13,19.13,0,0,0,1.39-7.77V3H392v10h1.19V17ZM390.63,4.25h-4V5.78a19.47,19.47,0,0,1-1.21,7.12h5.25Z"/><path class="cls-1" d="M403.45,17V14.2h-7.73V17h-1.37V12.9h1a19.11,19.11,0,0,0,1.4-7.77V3h6.83v10h1.19V17ZM402.22,4.25h-4V5.78A19.23,19.23,0,0,1,397,12.9h5.26Z"/><path class="cls-1" d="M414.39,4.25h-6V7.77H414V9h-5.6V12.9h6.07v1.3H407V3h7.4Z"/><path class="cls-1" d="M421.37,3c2,0,3.56.9,3.56,3.24,0,2.54-1.56,3.4-3.65,3.4h-2.9V14.2H417V3Zm-3,5.39h2.72c1.37,0,2.42-.4,2.42-2s-1.22-2.06-2.61-2.06h-2.53Z"/><path class="cls-1" d="M439.57,14.2l-3.91-5.59L434.4,10v4.2H433V10l-1.26-1.39-3.91,5.59h-1.77l4.75-6.64L426.56,3h1.77L433,8.18V3h1.38V8.18L439.09,3h1.77l-4.27,4.61,4.75,6.64Z"/><path class="cls-1" d="M447.32,7.47,452,14.2h-1.8l-3.88-5.72-1.77,1.77V14.2h-1.41V3h1.41V8.53L450,3h1.85Z"/><path class="cls-1" d="M452.71,3h1.55l3.12,6.86L460.44,3H462l-4.16,9c-.9,1.92-1.79,2.56-2.84,2.56a3.48,3.48,0,0,1-1.32-.29V12.92a2.18,2.18,0,0,0,1.2.28c.75,0,1.23-.76,1.59-1.54l.18-.4Z"/><path class="cls-1" d="M475,14.2v-5a15.13,15.13,0,0,1-3,.4c-3.27,0-3.75-2.18-3.75-3.43V3h1.41V6c0,.92.19,2.25,2.34,2.25a13.08,13.08,0,0,0,3-.38V3h1.41V14.2Z"/><path class="cls-1" d="M486.94,4.25h-3.59v10h-1.41V4.25h-3.59V3h8.59Z"/><path class="cls-1" d="M496.29,4.25h-6V7.77h5.6V9h-5.6V12.9h6.06v1.3h-7.48V3h7.41Z"/><path class="cls-1" d="M507.27,14.2h-1.41V8.94h-5.64V14.2h-1.41V3h1.41V7.64h5.64V3h1.41Z"/><path class="cls-1" d="M510.39,3h1.41v9.53h0L517.07,3h1.79V14.2h-1.41V4.64h0l-5.25,9.56h-1.78Z"/><path class="cls-1" d="M522.48,14.2h-1.75l3.58-4.85a2.89,2.89,0,0,1-2.66-3.18C521.65,4.06,522.94,3,525,3h4.59V14.2h-1.41V9.4H526Zm5.73-10h-2.7c-1.56,0-2.43.58-2.43,2s.85,2,2.43,2h2.7Z"/></g></g></svg>